Coordinates
version=1
nRows=30
nColumns=38
inDegrees=no

Units are S.I. units (second, meters, Newtons, ...)
If the header above contains a line with 'inDegrees', this indicates whether rotational values are in degrees (yes) or radians (no).

endheader
time	pelvis_tilt	pelvis_list	pelvis_rotation	pelvis_tx	pelvis_ty	pelvis_tz	hip_flexion_r	hip_adduction_r	hip_rotation_r	knee_angle_r	ankle_angle_r	subtalar_angle_r	mtp_angle_r	hip_flexion_l	hip_adduction_l	hip_rotation_l	knee_angle_l	ankle_angle_l	subtalar_angle_l	mtp_angle_l	lumbar_extension	lumbar_bending	lumbar_rotation	arm_flex_r	arm_add_r	arm_rot_r	elbow_flex_r	pro_sup_r	wrist_flex_r	wrist_dev_r	arm_flex_l	arm_add_l	arm_rot_l	elbow_flex_l	pro_sup_l	wrist_flex_l	wrist_dev_l
50	-3.04953	1.38257	-1.5273	0.859729	-0.507759	1.0848	-0.232916	-0.0201882	-0.184552	0.166305	-0.389932	0	0	-0.228666	-0.0301197	-0.173076	0.284542	-0.189876	0	0	-0.413183	0.00722673	0.0673716	0.123455	-0.368406	0.482759	0.592622	1.5708	0	0	0.0902431	-0.24782	0.249091	0.603957	1.5708	0	0
50.01	-3.05164	1.39523	-1.52584	0.859842	-0.506864	1.08403	-0.219231	-0.0203776	-0.182835	0.167251	-0.389538	0	0	-0.215054	-0.0296854	-0.169967	0.285009	-0.189872	0	0	-0.394598	0.00814299	0.0576137	0.120504	-0.373645	0.480989	0.621067	1.5708	0	0	0.0666312	-0.25496	0.221401	0.638214	1.5708	0	0
50.02	-3.05315	1.40945	-1.52537	0.859896	-0.505873	1.08313	-0.203594	-0.0210346	-0.180258	0.169161	-0.388687	0	0	-0.199943	-0.0287152	-0.166427	0.28534	-0.189777	0	0	-0.371364	0.00980796	0.0464573	0.115243	-0.383257	0.487873	0.655413	1.5708	0	0	0.0397101	-0.260105	0.188285	0.672924	1.5708	0	0
50.03	-3.05198	1.41878	-1.52695	0.859911	-0.505024	1.08238	-0.193735	-0.0217472	-0.179124	0.170498	-0.386824	0	0	-0.190117	-0.0279096	-0.164334	0.2859	-0.18917	0	0	-0.340119	0.00754463	0.0475471	0.097353	-0.396701	0.496941	0.689486	1.5708	0	0	0.0209436	-0.265446	0.172817	0.699757	1.5708	0	0
50.04	-3.05005	1.43084	-1.52904	0.859884	-0.504031	1.08145	-0.181282	-0.022501	-0.176644	0.171235	-0.384949	0	0	-0.177029	-0.0269808	-0.162384	0.28724	-0.188587	0	0	-0.304723	0.00427693	0.0510388	0.0755547	-0.408111	0.493107	0.72768	1.5708	0	0	0.00320402	-0.272351	0.162726	0.727437	1.5708	0	0
50.05	-3.04751	1.4447	-1.5318	0.859862	-0.50298	1.08041	-0.166842	-0.0233486	-0.173337	0.172162	-0.383084	0	0	-0.161813	-0.025826	-0.159804	0.288976	-0.187874	0	0	-0.268194	0.00101268	0.0544686	0.0512382	-0.420082	0.483045	0.771271	1.5708	0	0	-0.0152825	-0.279673	0.151615	0.757559	1.5708	0	0
50.06	-3.04378	1.45981	-1.53571	0.859813	-0.501966	1.07933	-0.150867	-0.0243172	-0.169717	0.1735	-0.381185	0	0	-0.14505	-0.0244001	-0.156289	0.290952	-0.187127	0	0	-0.232118	-0.00228489	0.0570507	0.0259855	-0.433004	0.46987	0.820353	1.5708	0	0	-0.0349932	-0.286887	0.137007	0.791405	1.5708	0	0
50.07	-3.03777	1.47608	-1.54188	0.859729	-0.500991	1.07818	-0.133578	-0.0255369	-0.165762	0.174743	-0.379262	0	0	-0.126832	-0.0228196	-0.15292	0.29316	-0.18659	0	0	-0.197516	-0.00649675	0.0601091	-0.000559832	-0.444373	0.44862	0.874349	1.5708	0	0	-0.0554313	-0.294255	0.119492	0.830545	1.5708	0	0
50.08	-3.0318	1.49127	-1.54814	0.859643	-0.500063	1.07709	-0.117419	-0.0266219	-0.1622	0.176161	-0.377337	0	0	-0.109963	-0.0215071	-0.15016	0.295058	-0.186165	0	0	-0.165176	-0.0100422	0.0624854	-0.0275991	-0.459515	0.432385	0.932412	1.5708	0	0	-0.0765678	-0.301345	0.0999534	0.872688	1.5708	0	0
50.09	-3.02288	1.50545	-1.55721	0.859543	-0.499241	1.07612	-0.102315	-0.0277083	-0.158862	0.177582	-0.375672	0	0	-0.0942168	-0.0200469	-0.146893	0.29657	-0.185986	0	0	-0.136072	-0.0136709	0.0643348	-0.054899	-0.475658	0.414556	0.993912	1.5708	0	0	-0.097905	-0.308111	0.0787651	0.919124	1.5708	0	0
50.1	-3.01139	1.51887	-1.56875	0.85941	-0.498525	1.07523	-0.0879965	-0.028664	-0.155687	0.178775	-0.374298	0	0	-0.0791592	-0.0186942	-0.14388	0.297972	-0.186121	0	0	-0.110165	-0.0170266	0.0661684	-0.0832494	-0.492461	0.393371	1.05934	1.5708	0	0	-0.118808	-0.314406	0.0565895	0.968989	1.5708	0	0
50.11	-2.9847	1.5291	-1.59514	0.859365	-0.497895	1.07449	-0.0772657	-0.0298617	-0.154382	0.17965	-0.372724	0	0	-0.0676287	-0.0172952	-0.141276	0.299095	-0.18622	0	0	-0.0846348	-0.0215476	0.0740722	-0.116027	-0.509526	0.368209	1.12644	1.5708	0	0	-0.133479	-0.322212	0.0433463	1.01695	1.5708	0	0
50.12	-2.94898	1.53798	-1.63088	0.859332	-0.49733	1.07384	-0.0678546	-0.0308931	-0.15284	0.180439	-0.3714	0	0	-0.0579304	-0.0159102	-0.137858	0.299411	-0.1863	0	0	-0.0626724	-0.0245284	0.0839548	-0.154293	-0.521841	0.331162	1.19515	1.5708	0	0	-0.144614	-0.329923	0.033341	1.06461	1.5708	0	0
50.13	-2.88275	1.54673	-1.69718	0.859286	-0.496774	1.0732	-0.0583854	-0.0320927	-0.151044	0.181373	-0.370269	0	0	-0.0484	-0.0143988	-0.134348	0.299341	-0.186676	0	0	-0.0425532	-0.0277932	0.0948506	-0.193935	-0.535142	0.291918	1.26542	1.5708	0	0	-0.153486	-0.337178	0.0241632	1.11276	1.5708	0	0
50.14	-2.72537	1.55489	-1.85456	0.859244	-0.4962	1.07253	-0.0514392	-0.0332508	-0.153009	0.175538	-0.372147	0	0	-0.0391282	-0.0126587	-0.131534	0.299424	-0.187107	0	0	-0.0240324	-0.0310684	0.106181	-0.234329	-0.545721	0.248168	1.33467	1.5708	0	0	-0.159947	-0.343851	0.016036	1.15979	1.5708	0	0
50.15	-2.47422	1.56034	-2.10544	0.859042	-0.495845	1.07218	-0.0433796	-0.0345953	-0.146787	0.18093	-0.370168	0	0	-0.0321866	-0.0112426	-0.128415	0.299335	-0.187789	0	0	-0.0101408	-0.03309	0.117586	-0.273218	-0.554646	0.203342	1.40168	1.5708	0	0	-0.162503	-0.3492	0.00952465	1.20443	1.5708	0	0
50.16	-1.95885	1.56372	-2.62028	0.858914	-0.495659	1.07179	-0.0391197	-0.0352336	-0.149535	0.176218	-0.371142	0	0	-0.0256178	-0.0101429	-0.12522	0.300221	-0.188003	0	0	0.00147944	-0.0350601	0.128996	-0.310289	-0.561741	0.159367	1.4658	1.5708	0	0	-0.162008	-0.354331	0.00458455	1.2475	1.5708	0	0
50.17	3.10405	1.55058	-1.43679	0.860056	-0.499636	1.0741	-0.0379947	-0.0297633	-0.0781267	0.203363	-0.360581	0	0	-0.045721	-0.0157507	-0.165439	0.296127	-0.188611	0	0	-0.033965	-0.0174518	0.181017	-0.345488	-0.585256	0.0927389	1.54492	1.5708	0	0	-0.136118	-0.338855	0.00743075	1.28379	1.5708	0	0
50.18	-1.06812	1.5636	2.77061	0.858768	-0.495524	1.07152	-0.0290907	-0.0368044	-0.142706	0.187757	-0.360808	0	0	-0.0186099	-0.00898813	-0.123219	0.30057	-0.188684	0	0	0.0174092	-0.0365126	0.159781	-0.386383	-0.568613	0.0620369	1.58638	1.5708	0	0	-0.144991	-0.363525	0.0107763	1.31994	1.5708	0	0
50.19	3.08994	1.55976	-1.42248	0.859806	-0.499162	1.07338	-0.0290247	-0.0312019	-0.0794957	0.206332	-0.354778	0	0	-0.0351653	-0.0142886	-0.161688	0.297842	-0.18821	0	0	-0.0143093	-0.0195966	0.202147	-0.408823	-0.592249	0.0114544	1.65298	1.5708	0	0	-0.125073	-0.347692	0.00904527	1.35614	1.5708	0	0
50.2	3.0634	1.56249	-1.39639	0.859736	-0.499036	1.07317	-0.0265234	-0.031421	-0.0788441	0.206644	-0.35199	0	0	-0.0319965	-0.014008	-0.16123	0.298357	-0.188385	0	0	-0.0101554	-0.0206223	0.209715	-0.432083	-0.5965	-0.0220548	1.70233	1.5708	0	0	-0.119459	-0.351511	0.00859816	1.39357	1.5708	0	0
50.21	2.93416	1.56563	-1.26799	0.859681	-0.498838	1.07291	-0.0230843	-0.0313798	-0.0778498	0.206859	-0.351165	0	0	-0.0283798	-0.0140943	-0.161195	0.298787	-0.188349	0	0	-0.00425883	-0.0213522	0.217291	-0.452629	-0.600572	-0.0521502	1.74667	1.5708	0	0	-0.112087	-0.355168	0.0113575	1.4274	1.5708	0	0
50.22	2.61441	1.56792	-0.948851	0.859592	-0.498688	1.07269	-0.0203086	-0.0314127	-0.0775777	0.207189	-0.350582	0	0	-0.0252766	-0.0142726	-0.160961	0.299607	-0.188039	0	0	0.000447676	-0.0219539	0.225083	-0.471408	-0.603696	-0.0814826	1.78793	1.5708	0	0	-0.101749	-0.359138	0.0181998	1.45825	1.5708	0	0
50.23	2.42909	1.56864	-0.764192	0.85956	-0.498678	1.0726	-0.0197313	-0.0316264	-0.077276	0.206521	-0.350083	0	0	-0.0239406	-0.0142271	-0.161005	0.30044	-0.187436	0	0	-0.00435689	-0.0237274	0.226428	-0.480405	-0.60823	-0.10487	1.82882	1.5708	0	0	-0.0957584	-0.362343	0.0175049	1.49641	1.5708	0	0
50.24	2.22479	1.56908	-0.560321	0.859526	-0.498643	1.07254	-0.019824	-0.0317418	-0.0773336	0.205116	-0.350022	0	0	-0.0229388	-0.01414	-0.160613	0.301003	-0.187057	0	0	-0.00901327	-0.0258522	0.225364	-0.483599	-0.613812	-0.121911	1.86448	1.5708	0	0	-0.0904643	-0.365436	0.016793	1.53299	1.5708	0	0
50.25	0	1.5708	1.66403	0.85946	-0.498559	1.0724	-0.0190966	-0.0319637	-0.0775604	0.204327	-0.349529	0	0	-0.0212943	-0.0139678	-0.159964	0.301428	-0.186808	0	0	-0.0127834	-0.0280939	0.223435	-0.48342	-0.619737	-0.134959	1.89598	1.5708	0	0	-0.0849182	-0.368971	0.017979	1.56739	1.5708	0	0
50.26	-0.308285	1.54966	2.00707	0.858221	-0.494707	1.06995	-0.0145375	-0.0397261	-0.142447	0.18735	-0.351771	0	0	0.00166765	-0.00626616	-0.118857	0.305646	-0.186382	0	0	0.021438	-0.0496418	0.18734	-0.483578	-0.607168	-0.126927	1.91217	1.5708	0	0	-0.0909106	-0.393478	0.0216977	1.60001	1.5708	0	0
50.27	-0.285764	1.54802	1.98412	0.858124	-0.494662	1.06973	-0.0128102	-0.0402876	-0.142554	0.187139	-0.352425	0	0	0.00387272	-0.00596936	-0.11796	0.306354	-0.186064	0	0	0.0204865	-0.0507158	0.184453	-0.476854	-0.614486	-0.130591	1.93485	1.5708	0	0	-0.0825206	-0.398056	0.0295128	1.62573	1.5708	0	0
50.28	-0.277221	1.54727	1.9752	0.858002	-0.49469	1.06959	-0.0122188	-0.0405398	-0.142857	0.187115	-0.351827	0	0	0.00510041	-0.00576619	-0.117032	0.307022	-0.185625	0	0	0.0173104	-0.0517323	0.180959	-0.466508	-0.621971	-0.130926	1.95396	1.5708	0	0	-0.0724985	-0.402475	0.0395538	1.64894	1.5708	0	0
50.29	-0.258486	1.54637	1.95614	0.85783	-0.494728	1.06944	-0.0113173	-0.0406711	-0.143286	0.187103	-0.351098	0	0	0.00663207	-0.00567761	-0.115839	0.30782	-0.185031	0	0	0.014116	-0.0525012	0.177117	-0.452521	-0.629406	-0.127265	1.96831	1.5708	0	0	-0.061367	-0.406882	0.0520452	1.66935	1.5708	0	0
